<?xml version="1.0" encoding="utf-8"?>
<!-- Generator: Adobe Illustrator 23.0.1, SVG Export Plug-In . SVG Version: 6.00 Build 0)  -->
<svg version="1.1" id="Capa_1" xmlns="http://www.w3.org/2000/svg" xmlns:xlink="http://www.w3.org/1999/xlink" x="0px" y="0px"
	 viewBox="0 0 292.3 292.3" style="enable-background:new 0 0 292.3 292.3;" xml:space="preserve">
<style type="text/css">
	.st0{fill:#FFFFFF;}
</style>
<g>
	<g>
		<path class="st0" d="M153.7,292.1C68.9,292.1,0,223.2,0,138.4C0,79.7,32.7,27,85.3,0.8c2.4-1.2,5.2-0.7,7.1,1.1
			c1.9,1.9,2.3,4.7,1.2,7.1c-9.6,19.5-14.5,40.5-14.5,62.3c0,78,63.4,141.4,141.4,141.4c22.1,0,43.2-5,62.9-14.8
			c2.4-1.2,5.2-0.7,7.1,1.1c1.9,1.9,2.3,4.7,1.2,7.1C265.6,259.2,212.7,292.1,153.7,292.1z"/>
	</g>
</g>
</svg>
